<?xml version="1.0" encoding="UTF-8"?>
<svg xmlns="http://www.w3.org/2000/svg" xmlns:xlink="http://www.w3.org/1999/xlink" width="2489.47pt" height="1002.59pt" viewBox="0 0 2489.47 1002.59" version="1.1">
<defs>
<clipPath id="clip1">
  <path d="M 1415 838 L 1516 838 L 1516 1002.589844 L 1415 1002.589844 Z M 1415 838 "/>
</clipPath>
<clipPath id="clip2">
  <path d="M 2468 795 L 2489.46875 795 L 2489.46875 955 L 2468 955 Z M 2468 795 "/>
</clipPath>
</defs>
<g id="surface1">
<path style=" stroke:none;fill-rule:nonzero;fill:rgb(55.299377%,58.799744%,61.999512%);fill-opacity:1;" d="M 641.285156 954.601563 L 641.285156 941.546875 C 632.855469 947.238281 618.96875 957.332031 601.085938 957.332031 C 567.609375 957.332031 564.871094 934.167969 564.871094 912.699219 L 564.871094 839.664063 L 586.136719 839.664063 L 586.136719 909.546875 C 586.136719 927.019531 588.453125 938.601563 607.183594 938.601563 C 618.34375 938.601563 636.019531 928.289063 641.285156 925.34375 L 641.285156 839.664063 L 662.332031 839.664063 L 662.332031 954.601563 L 641.285156 954.601563 "/>
<path style=" stroke:none;fill-rule:nonzero;fill:rgb(55.299377%,58.799744%,61.999512%);fill-opacity:1;" d="M 769.902344 954.601563 L 769.902344 884.082031 C 769.902344 866.609375 766.953125 855.242188 748.433594 855.242188 C 735.800781 855.242188 720.429688 865.148438 715.164063 868.09375 L 715.164063 954.601563 L 693.691406 954.601563 L 693.691406 839.664063 L 715.164063 839.664063 L 715.164063 851.871094 C 723.59375 846.1875 735.378906 836.515625 754.53125 836.515625 C 789.054688 836.515625 791.164063 859.457031 791.164063 880.929688 L 791.164063 954.601563 L 769.902344 954.601563 "/>
<path style=" stroke:none;fill-rule:nonzero;fill:rgb(55.299377%,58.799744%,61.999512%);fill-opacity:1;" d="M 825.265625 795.878906 L 846.734375 795.878906 L 846.734375 954.601563 L 825.265625 954.601563 L 825.265625 795.878906 "/>
<path style=" stroke:none;fill-rule:nonzero;fill:rgb(55.299377%,58.799744%,61.999512%);fill-opacity:1;" d="M 928.199219 853.984375 C 902.722656 853.984375 895.992188 876.289063 895.992188 897.34375 C 895.992188 920.082031 903.78125 939.65625 928.625 939.65625 C 954.09375 939.65625 960.203125 919.226563 960.203125 897.128906 C 960.203125 876.722656 954.296875 853.984375 928.199219 853.984375 M 926.933594 957.117188 C 893.675781 957.117188 874.308594 935.445313 874.308594 898.394531 C 874.308594 859.03125 896.839844 836.726563 928.828125 836.726563 C 964.824219 836.726563 982.503906 858.199219 982.503906 897.128906 C 982.503906 937.121094 958.304688 957.117188 926.933594 957.117188 "/>
<path style=" stroke:none;fill-rule:nonzero;fill:rgb(55.299377%,58.799744%,61.999512%);fill-opacity:1;" d="M 1082.488281 859.871094 C 1076.398438 857.140625 1067.339844 854.605469 1055.761719 854.605469 C 1035.558594 854.605469 1022.710938 867.660156 1022.710938 896.492188 C 1022.710938 925.332031 1030.710938 938.601563 1063.328125 938.601563 C 1072.601563 938.601563 1079.96875 936.707031 1085.859375 935.863281 L 1088.808594 952.492188 C 1082.488281 954.179688 1073.441406 956.5 1061.441406 956.5 C 1017.03125 956.5 1000.390625 939.230469 1000.390625 895.878906 C 1000.390625 859.027344 1022.929688 836.71875 1057.230469 836.71875 C 1073.230469 836.71875 1083.339844 840.085938 1089.648438 843.664063 L 1082.488281 859.871094 "/>
<path style=" stroke:none;fill-rule:nonzero;fill:rgb(55.299377%,58.799744%,61.999512%);fill-opacity:1;" d="M 1205.640625 956.910156 C 1194.898438 956.28125 1182.050781 953.964844 1167.320313 935.234375 L 1135.539063 894.1875 L 1182.269531 839.65625 L 1206.480469 839.65625 L 1159.121094 893.136719 L 1181 919.65625 C 1190.691406 931.441406 1200.589844 938.179688 1208.578125 940.488281 Z M 1113.21875 795.886719 L 1134.691406 795.886719 L 1134.691406 954.605469 L 1113.21875 954.605469 L 1113.21875 795.886719 "/>
<path style=" stroke:none;fill-rule:nonzero;fill:rgb(55.299377%,58.799744%,61.999512%);fill-opacity:1;" d="M 1231.949219 839.667969 L 1253.421875 839.667969 L 1253.421875 954.601563 L 1231.949219 954.601563 Z M 1242.480469 820.722656 L 1225.839844 803.878906 L 1242.480469 787.246094 L 1259.308594 803.878906 L 1242.480469 820.722656 "/>
<path style=" stroke:none;fill-rule:nonzero;fill:rgb(55.299377%,58.799744%,61.999512%);fill-opacity:1;" d="M 1368.769531 954.601563 L 1368.769531 884.082031 C 1368.769531 866.609375 1365.828125 855.242188 1347.300781 855.242188 C 1334.671875 855.242188 1319.300781 865.148438 1314.050781 868.09375 L 1314.050781 954.601563 L 1292.578125 954.601563 L 1292.578125 839.664063 L 1314.050781 839.664063 L 1314.050781 851.871094 C 1322.460938 846.1875 1334.25 836.515625 1353.421875 836.515625 C 1387.929688 836.515625 1390.039063 859.457031 1390.039063 880.929688 L 1390.039063 954.601563 L 1368.769531 954.601563 "/>
<g clip-path="url(#clip1)" clip-rule="nonzero">
<path style=" stroke:none;fill-rule:nonzero;fill:rgb(55.299377%,58.799744%,61.999512%);fill-opacity:1;" d="M 1493.609375 857.976563 C 1488.339844 857.351563 1482.238281 856.503906 1472.550781 856.503906 C 1446.871094 856.503906 1437.199219 875.027344 1437.199219 897.976563 C 1437.199219 927.652344 1449.609375 939.019531 1470.03125 939.019531 C 1480.351563 939.019531 1488.550781 933.339844 1493.609375 930.179688 Z M 1464.558594 1002.589844 C 1447.5 1002.589844 1431.71875 999.019531 1424.769531 997.121094 L 1427.929688 980.492188 C 1435.300781 981.953125 1451.078125 984.273438 1459.929688 984.273438 C 1479.511719 984.273438 1493.820313 980.492188 1493.820313 956.914063 C 1494.03125 956.914063 1493.820313 947.867188 1493.820313 947.648438 C 1487.5 952.285156 1478.871094 956.28125 1468.761719 956.28125 C 1443.71875 956.28125 1415.929688 949.546875 1415.929688 897.550781 C 1415.929688 858.605469 1441.828125 838.402344 1472.75 838.402344 C 1485.808594 838.402344 1499.921875 840.300781 1515.078125 842.617188 L 1515.078125 960.277344 C 1515.078125 991.230469 1488.339844 1002.589844 1464.558594 1002.589844 "/>
</g>
<path style=" stroke:none;fill-rule:nonzero;fill:rgb(55.299377%,58.799744%,61.999512%);fill-opacity:1;" d="M 1659.058594 855.660156 C 1649.160156 855.660156 1637.578125 861.988281 1633.789063 864.296875 L 1633.789063 937.121094 C 1638.421875 937.972656 1642.839844 939.019531 1655.269531 939.019531 C 1678.421875 939.019531 1690.210938 921.125 1690.210938 896.488281 C 1690.210938 873.355469 1684.101563 855.660156 1659.058594 855.660156 M 1654.628906 956.285156 C 1645.800781 956.285156 1639.058594 955.863281 1633.789063 955.234375 L 1633.789063 1000.898438 L 1612.320313 1000.898438 L 1612.320313 839.664063 L 1633.578125 839.664063 L 1633.578125 848.09375 C 1640.539063 843.03125 1652.53125 837.984375 1664.53125 837.984375 C 1694.628906 837.984375 1712.109375 857.355469 1712.109375 893.136719 C 1712.109375 941.132813 1684.53125 956.285156 1654.628906 956.285156 "/>
<path style=" stroke:none;fill-rule:nonzero;fill:rgb(55.299377%,58.799744%,61.999512%);fill-opacity:1;" d="M 1784.089844 853.984375 C 1758.621094 853.984375 1751.878906 876.289063 1751.878906 897.34375 C 1751.878906 920.082031 1759.671875 939.65625 1784.511719 939.65625 C 1809.988281 939.65625 1816.089844 919.226563 1816.089844 897.128906 C 1816.089844 876.722656 1810.191406 853.984375 1784.089844 853.984375 M 1782.828125 957.117188 C 1749.578125 957.117188 1730.210938 935.445313 1730.210938 898.394531 C 1730.210938 859.03125 1752.730469 836.726563 1784.710938 836.726563 C 1820.710938 836.726563 1838.398438 858.199219 1838.398438 897.128906 C 1838.398438 937.121094 1814.199219 957.117188 1782.828125 957.117188 "/>
<path style=" stroke:none;fill-rule:nonzero;fill:rgb(55.299377%,58.799744%,61.999512%);fill-opacity:1;" d="M 1909.550781 956.910156 C 1887.871094 956.910156 1868.289063 957.125 1868.289063 921.972656 L 1868.289063 856.71875 L 1851.441406 856.71875 L 1851.441406 839.65625 L 1868.289063 839.65625 L 1868.289063 816.085938 L 1889.550781 816.085938 L 1889.550781 839.65625 L 1925.121094 839.65625 L 1925.121094 856.71875 L 1889.550781 856.71875 L 1889.550781 921.757813 C 1889.550781 936.488281 1893.761719 938.601563 1909.128906 938.601563 C 1917.761719 938.601563 1928.710938 936.078125 1928.710938 936.078125 L 1931.859375 953.117188 C 1927.441406 954.605469 1916.910156 956.910156 1909.550781 956.910156 "/>
<path style=" stroke:none;fill-rule:nonzero;fill:rgb(55.299377%,58.799744%,61.999512%);fill-opacity:1;" d="M 1993.960938 853.34375 C 1979.441406 853.34375 1966.589844 863.667969 1964.910156 886.609375 L 2017.730469 886.609375 C 2017.960938 865.765625 2008.898438 853.34375 1993.960938 853.34375 M 1964.488281 902.1875 C 1965.121094 933.339844 1981.949219 938.394531 2004.488281 938.394531 C 2012.480469 938.394531 2027.628906 936.710938 2033.949219 935.238281 L 2037.539063 952.289063 C 2031.429688 954.390625 2013.320313 956.488281 1999.429688 956.488281 C 1964.910156 956.488281 1943.019531 943.652344 1943.019531 899.03125 C 1943.019531 852.511719 1965.949219 836.933594 1996.480469 836.933594 C 2026.789063 836.933594 2040.261719 857.351563 2040.261719 894.386719 L 2040.261719 902.1875 L 1964.488281 902.1875 "/>
<path style=" stroke:none;fill-rule:nonzero;fill:rgb(55.299377%,58.799744%,61.999512%);fill-opacity:1;" d="M 2142.359375 954.601563 L 2142.359375 884.082031 C 2142.359375 866.609375 2139.421875 855.242188 2120.878906 855.242188 C 2108.261719 855.242188 2092.890625 865.148438 2087.628906 868.09375 L 2087.628906 954.601563 L 2066.160156 954.601563 L 2066.160156 839.664063 L 2087.628906 839.664063 L 2087.628906 851.871094 C 2096.058594 846.1875 2107.839844 836.515625 2126.988281 836.515625 C 2161.519531 836.515625 2163.621094 859.457031 2163.621094 880.929688 L 2163.621094 954.601563 L 2142.359375 954.601563 "/>
<path style=" stroke:none;fill-rule:nonzero;fill:rgb(55.299377%,58.799744%,61.999512%);fill-opacity:1;" d="M 2242.769531 956.910156 C 2221.089844 956.910156 2201.511719 957.125 2201.511719 921.972656 L 2201.511719 856.71875 L 2184.671875 856.71875 L 2184.671875 839.65625 L 2201.511719 839.65625 L 2201.511719 816.085938 L 2222.769531 816.085938 L 2222.769531 839.65625 L 2258.351563 839.65625 L 2258.351563 856.71875 L 2222.769531 856.71875 L 2222.769531 921.757813 C 2222.769531 936.488281 2226.980469 938.601563 2242.339844 938.601563 C 2250.96875 938.601563 2261.921875 936.078125 2261.921875 936.078125 L 2265.070313 953.117188 C 2260.671875 954.605469 2250.140625 956.910156 2242.769531 956.910156 "/>
<path style=" stroke:none;fill-rule:nonzero;fill:rgb(55.299377%,58.799744%,61.999512%);fill-opacity:1;" d="M 2288.238281 839.667969 L 2309.699219 839.667969 L 2309.699219 954.601563 L 2288.238281 954.601563 Z M 2298.761719 820.722656 L 2282.128906 803.878906 L 2298.761719 787.246094 L 2315.601563 803.878906 L 2298.761719 820.722656 "/>
<path style=" stroke:none;fill-rule:nonzero;fill:rgb(55.299377%,58.799744%,61.999512%);fill-opacity:1;" d="M 2408.21875 903.449219 L 2383.589844 904.921875 C 2363.808594 906.1875 2357.921875 912.289063 2357.921875 921.757813 C 2357.921875 934.605469 2365.070313 939.023438 2375.601563 939.023438 C 2386.539063 939.023438 2406.109375 927.441406 2408.21875 926.816406 Z M 2438.320313 955.648438 C 2426.960938 956.496094 2410.75 954.601563 2409.070313 941.753906 C 2402.960938 946.1875 2392.019531 956.289063 2371.800781 956.289063 C 2350.121094 956.289063 2337.28125 944.929688 2337.28125 923.445313 C 2337.28125 895.019531 2362.96875 889.5625 2382.761719 889.125 C 2382.761719 889.125 2406.539063 888.71875 2408.21875 888.71875 L 2408.21875 874.40625 C 2408.21875 857.769531 2399.800781 855.242188 2381.070313 855.242188 C 2370.328125 855.242188 2357.488281 859.035156 2351.179688 860.507813 L 2346.75 844.300781 C 2353.921875 841.359375 2368.660156 836.925781 2385.910156 836.925781 C 2409.28125 836.925781 2428.851563 842.394531 2428.851563 868.71875 L 2428.851563 929.757813 C 2428.851563 937.332031 2434.121094 938.8125 2439.578125 939.023438 L 2438.320313 955.648438 "/>
<g clip-path="url(#clip2)" clip-rule="nonzero">
<path style=" stroke:none;fill-rule:nonzero;fill:rgb(55.299377%,58.799744%,61.999512%);fill-opacity:1;" d="M 2468.011719 795.878906 L 2489.480469 795.878906 L 2489.480469 954.601563 L 2468.011719 954.601563 L 2468.011719 795.878906 "/>
</g>
<path style=" stroke:none;fill-rule:nonzero;fill:rgb(74.899292%,16.499329%,29.399109%);fill-opacity:1;" d="M 262.746094 411.621094 C 182.058594 411.621094 116.679688 345.808594 116.679688 264.609375 C 116.679688 183.421875 182.058594 117.605469 262.746094 117.605469 C 343.394531 117.605469 408.777344 183.421875 408.777344 264.609375 C 408.777344 345.808594 343.394531 411.621094 262.746094 411.621094 M 262.746094 0 C 117.527344 0 -0.164063 118.476563 -0.164063 264.609375 C -0.164063 410.757813 117.527344 529.214844 262.746094 529.214844 C 407.917969 529.214844 525.613281 410.757813 525.613281 264.609375 C 525.613281 118.476563 407.917969 0 262.746094 0 "/>
<path style=" stroke:none;fill-rule:nonzero;fill:rgb(74.899292%,16.499329%,29.399109%);fill-opacity:1;" d="M 1129.710938 707.890625 C 1129.710938 707.890625 1246.898438 717.316406 1246.898438 607.246094 L 1246.898438 484.898438 C 1288.519531 513.039063 1338.679688 529.1875 1392.550781 529.1875 C 1537.730469 529.1875 1655.410156 410.621094 1655.410156 264.640625 C 1655.410156 118.367188 1537.730469 0.0195313 1392.550781 0.0195313 C 1248.851563 0.0195313 1129.75 118.230469 1129.75 264.640625 Z M 1392.648438 411.617188 C 1311.960938 411.617188 1246.578125 345.835938 1246.578125 264.640625 C 1246.578125 183.449219 1311.960938 117.613281 1392.648438 117.613281 C 1473.289063 117.613281 1538.679688 183.449219 1538.679688 264.640625 C 1538.679688 345.835938 1473.289063 411.617188 1392.648438 411.617188 "/>
<path style=" stroke:none;fill-rule:nonzero;fill:rgb(74.899292%,16.499329%,29.399109%);fill-opacity:1;" d="M 564.839844 707.890625 C 564.839844 707.890625 682.019531 717.316406 682.019531 607.246094 L 682.019531 484.898438 C 723.652344 513.039063 773.800781 529.1875 827.6875 529.1875 C 972.855469 529.1875 1090.539063 410.621094 1090.539063 264.640625 C 1090.539063 118.367188 972.855469 0.0195313 827.6875 0.0195313 C 683.964844 0.0195313 564.875 118.230469 564.875 264.640625 Z M 827.78125 411.617188 C 747.09375 411.617188 681.710938 345.835938 681.710938 264.640625 C 681.710938 183.449219 747.09375 117.613281 827.78125 117.613281 C 908.429688 117.613281 973.8125 183.449219 973.8125 264.640625 C 973.8125 345.835938 908.429688 411.617188 827.78125 411.617188 "/>
</g>
</svg>
